<svg width="250" height="250" viewBox="0 0 250 250" fill="none" xmlns="http://www.w3.org/2000/svg">
<path d="M0 125C0 55.9644 55.9644 0 125 0C194.036 0 250 55.9644 250 125C250 194.036 194.036 250 125 250C55.9644 250 0 194.036 0 125Z" fill="#1E306E"/>
<path d="M120.112 50C77.0041 50 44 83.6777 44 125.438C44 167.198 77.0041 200.876 120.112 200.876C147.727 200.876 173.322 186.058 184.773 165.178L162.545 153.054C153.789 168.545 138.971 177.302 120.112 177.302C106.64 177.302 93.1694 171.913 84.4132 162.483C74.9835 152.38 69.595 139.583 69.595 126.112C69.595 112.64 74.9835 99.843 84.4132 89.7397C93.1694 80.3099 105.967 74.9215 120.112 74.9215C134.93 74.9215 143.686 79.6364 149.748 84.3512C156.483 89.0661 163.219 93.781 174.669 93.781C195.55 93.781 204.979 76.9422 207 68.186L183.426 63.4711C183.426 64.1446 181.405 70.8802 174.669 70.8802C171.302 70.8802 169.281 69.5331 164.566 66.1653C155.81 58.0826 144.36 50 120.112 50Z" fill="white"/>
</svg>
