<svg width="55" height="55" viewBox="0 0 55 55" fill="none" xmlns="http://www.w3.org/2000/svg">
<path d="M28.591 0.0221123C13.4142 -0.581136 0.622843 11.2325 0.0221078 26.4092C-0.58114 41.5859 11.235 54.3747 26.4093 54.978C41.586 55.5813 54.3748 43.7677 54.9781 28.591C55.5788 13.4142 43.7651 0.622847 28.591 0.0221123ZM40.1984 40.3065C39.8566 40.9098 39.1905 41.2115 38.542 41.121C38.3435 41.0933 38.1449 41.0279 37.959 40.9223C34.3244 38.8537 30.363 37.5065 26.1855 36.9183C22.008 36.3301 17.828 36.5338 13.7636 37.5216C12.8813 37.7351 11.9941 37.1947 11.7804 36.3125C11.5668 35.4303 12.1072 34.5429 12.9894 34.3294C17.4585 33.2435 22.0532 33.0197 26.6429 33.6658C31.2326 34.3118 35.5861 35.7922 39.5851 38.067C40.3719 38.5169 40.6483 39.5173 40.2009 40.3065H40.1984ZM43.8129 33.0876C43.2523 34.1232 41.9554 34.5104 40.9199 33.9499C36.6669 31.6499 32.0622 30.1393 27.2336 29.4606C22.4051 28.7821 17.5641 28.9654 12.8411 30.0035C12.5848 30.0589 12.3309 30.0689 12.0846 30.0337C11.2274 29.913 10.4935 29.2747 10.2974 28.3773C10.0436 27.2262 10.7725 26.0875 11.9237 25.8336C17.1442 24.6849 22.4956 24.4814 27.8294 25.2303C33.1606 25.9794 38.2505 27.6484 42.9508 30.1921C43.9889 30.7526 44.3734 32.047 43.8129 33.0851V33.0876ZM47.8196 24.9514C47.2917 25.9668 46.1933 26.4922 45.1225 26.3413C44.8334 26.3011 44.5494 26.2106 44.2753 26.0699C39.3238 23.4936 33.99 21.7919 28.4226 21.0101C22.8551 20.2284 17.2574 20.3944 11.788 21.5052C10.3653 21.7944 8.98034 20.8744 8.69129 19.4542C8.40223 18.0316 9.32219 16.6467 10.7423 16.3575C16.7999 15.1285 22.9933 14.945 29.1539 15.8096C35.3147 16.6743 41.2164 18.5594 46.701 21.4124C47.9879 22.0808 48.488 23.6669 47.8196 24.9539V24.9514Z" fill="#1ED760"/>
</svg>
